<svg width="31" height="40" viewBox="0 0 31 40" fill="none" xmlns="http://www.w3.org/2000/svg">
<g filter="url(#filter0_d_191_227)">
<path d="M26.5856 32C26.1992 31.2349 25.8026 30.4808 25.3959 29.7378C21.7352 23.0502 17.2502 17.2553 11.941 12.3531C11.8401 12.26 11.7389 12.1671 11.6374 12.0746L11.508 18.8001C16.8681 14.1606 21.4687 8.63217 25.3097 2.21478C25.7447 1.48792 26.17 0.749668 26.5856 1.90735e-06C25.7803 0.293505 24.9847 0.598404 24.1989 0.914713C17.2608 3.70739 11.0822 7.38902 5.66324 11.9596C3.50886 13.8243 3.42809 16.7655 5.53376 18.6851C5.63405 18.7789 5.73464 18.8723 5.83552 18.9655C11.1447 23.8677 17.2782 27.8772 24.2358 30.9941C25.0089 31.3404 25.7922 31.6757 26.5856 32Z" fill="#32454A"/>
</g>
<defs>
<filter id="filter0_d_191_227" x="0" y="0" width="30.5856" height="40" filterUnits="userSpaceOnUse" color-interpolation-filters="sRGB">
<feFlood flood-opacity="0" result="BackgroundImageFix"/>
<feColorMatrix in="SourceAlpha" type="matrix" values="0 0 0 0 0 0 0 0 0 0 0 0 0 0 0 0 0 0 127 0" result="hardAlpha"/>
<feOffset dy="4"/>
<feGaussianBlur stdDeviation="2"/>
<feComposite in2="hardAlpha" operator="out"/>
<feColorMatrix type="matrix" values="0 0 0 0 0 0 0 0 0 0 0 0 0 0 0 0 0 0 0.25 0"/>
<feBlend mode="normal" in2="BackgroundImageFix" result="effect1_dropShadow_191_227"/>
<feBlend mode="normal" in="SourceGraphic" in2="effect1_dropShadow_191_227" result="shape"/>
</filter>
</defs>
</svg>
