<svg width="484" height="203" viewBox="0 0 484 203" fill="none" xmlns="http://www.w3.org/2000/svg">
<g filter="url(#filter0_d_195_101)">
<path d="M437 165H47V110.956C47 94.826 59.7369 81.5902 75.8589 81.0957C99.8691 80.3593 134.172 79.4715 160 79.4715C216.236 79.4715 274 66.5127 304 82.0633C334 97.6139 346 100.206 380 82.0633C398.562 72.1586 413.845 73.0687 423.898 75.9371C432.731 78.4577 437 87.4233 437 96.609V165Z" fill="#EEEEEE" fill-opacity="0.77" shape-rendering="crispEdges"/>
</g>
<g filter="url(#filter1_d_195_101)">
<path d="M437 183H47V128.956C47 112.826 59.7369 99.5902 75.8589 99.0957C99.8691 98.3593 134.172 97.4715 160 97.4715C216.236 97.4715 274 84.5127 304 100.063C334 115.614 346 118.206 380 100.063C398.562 90.1586 413.845 91.0687 423.898 93.9371C432.731 96.4577 437 105.423 437 114.609V183Z" fill="#EEEEEE" fill-opacity="0.77" shape-rendering="crispEdges"/>
</g>
<defs>
<filter id="filter0_d_195_101" x="0" y="0" width="484" height="185" filterUnits="userSpaceOnUse" color-interpolation-filters="sRGB">
<feFlood flood-opacity="0" result="BackgroundImageFix"/>
<feColorMatrix in="SourceAlpha" type="matrix" values="0 0 0 0 0 0 0 0 0 0 0 0 0 0 0 0 0 0 127 0" result="hardAlpha"/>
<feOffset dy="-27"/>
<feGaussianBlur stdDeviation="23.5"/>
<feComposite in2="hardAlpha" operator="out"/>
<feColorMatrix type="matrix" values="0 0 0 0 0.988235 0 0 0 0 0.72549 0 0 0 0 0.458824 0 0 0 0.25 0"/>
<feBlend mode="normal" in2="BackgroundImageFix" result="effect1_dropShadow_195_101"/>
<feBlend mode="normal" in="SourceGraphic" in2="effect1_dropShadow_195_101" result="shape"/>
</filter>
<filter id="filter1_d_195_101" x="0" y="18" width="484" height="185" filterUnits="userSpaceOnUse" color-interpolation-filters="sRGB">
<feFlood flood-opacity="0" result="BackgroundImageFix"/>
<feColorMatrix in="SourceAlpha" type="matrix" values="0 0 0 0 0 0 0 0 0 0 0 0 0 0 0 0 0 0 127 0" result="hardAlpha"/>
<feOffset dy="-27"/>
<feGaussianBlur stdDeviation="23.5"/>
<feComposite in2="hardAlpha" operator="out"/>
<feColorMatrix type="matrix" values="0 0 0 0 0.988235 0 0 0 0 0.72549 0 0 0 0 0.458824 0 0 0 0.25 0"/>
<feBlend mode="normal" in2="BackgroundImageFix" result="effect1_dropShadow_195_101"/>
<feBlend mode="normal" in="SourceGraphic" in2="effect1_dropShadow_195_101" result="shape"/>
</filter>
</defs>
</svg>
