<svg width="44" height="33" viewBox="0 0 44 33" fill="none" xmlns="http://www.w3.org/2000/svg">
<path d="M40.1965 6.53442C42.161 8.46575 42.012 10.4212 42.1606 13.3357C42.3065 16.1945 42.5339 17.5946 40.9883 19.8991C40.4146 20.7546 39.5581 21.5938 38.689 22.3223C37.3189 23.4708 35.4251 22.4495 35.4064 20.6758L35.2637 7.15704C35.2469 5.55967 36.8074 4.41004 38.2052 5.15379C38.9372 5.54334 39.6631 6.01 40.1965 6.53442Z" fill="#F1F1EC" style="mix-blend-mode:color-dodge"/>
<path d="M3.32728 6.5344C1.36279 8.46573 1.51183 10.4212 1.36315 13.3357C1.21731 16.1945 0.989898 17.5946 2.53548 19.8991C3.1092 20.7545 3.96572 21.5938 4.83478 22.3223C6.20492 23.4708 8.09869 22.4495 8.1174 20.6757L8.26005 7.15703C8.27691 5.55966 6.71635 4.41002 5.31865 5.15378C4.58659 5.54332 3.86069 6.00999 3.32728 6.5344Z" fill="#F1F1EC" style="mix-blend-mode:color-dodge"/>
<path d="M9.37144 3.73311C10.525 2.04016 12.9651 3.14268 13.2894 5.22334C14.0885 10.3488 16.2826 17.3835 22.3031 17.3835C28.1463 17.3831 30.7352 10.383 31.8353 5.43428C32.272 3.47005 34.6583 2.6946 35.7308 4.44795C36.7453 6.10668 37.5105 7.9528 37.9847 9.91475C38.8658 13.5606 38.6985 17.4248 37.5062 20.9636C36.3139 24.5023 34.1567 27.5391 31.3373 29.6462C28.5179 31.7532 25.1776 32.8248 21.7865 32.7116L21.1517 32.6765C17.9883 32.4326 14.9542 31.1621 12.4291 29.0144L11.932 28.5749C9.49134 26.3251 7.69313 23.3229 6.76695 19.9372L6.5941 19.2575C5.84361 16.0712 5.89117 12.7147 6.72984 9.55244L6.92125 8.87764C7.48685 7.01603 8.31704 5.28062 9.37144 3.73311ZM10.9974 5.25264C10.1592 6.54114 9.4868 7.97533 9.01891 9.51534C8.05149 12.6998 8.00343 16.1464 8.88219 19.3591C9.76094 22.5711 11.5125 25.3562 13.85 27.3444C16.1833 29.3289 18.9858 30.4242 21.8597 30.5202C24.7335 30.6161 27.5887 29.7109 30.0248 27.8903C32.4655 26.0663 34.3686 23.4079 35.4281 20.2634C36.4877 17.1184 36.6382 13.6752 35.8539 10.4294C35.4549 8.77877 34.8235 7.22884 34.0004 5.82979C33.9912 5.85335 33.9826 5.87993 33.9759 5.90987C33.4045 8.48021 32.4134 11.7591 30.6947 14.446C28.962 17.1547 26.2614 19.5757 22.3031 19.5759C18.2458 19.5759 15.5819 17.1346 13.9447 14.3308C12.3391 11.5809 11.5384 8.22295 11.1234 5.56123C11.1042 5.43799 11.0573 5.33401 10.9974 5.25264Z" fill="#F1F1EC" style="mix-blend-mode:color-dodge"/>
<rect x="15.877" y="13.9733" width="11.4889" height="7.25196" rx="1.9932" fill="#F1F1EC" style="mix-blend-mode:color-dodge"/>
<ellipse cx="15.4454" cy="5.50475" rx="1.39622" ry="1.54767" fill="#DFC833"/>
<path d="M19.3978 0.944024C18.4096 0.958552 17.7074 2.68134 17.4799 3.54092C17.5341 4.30365 17.779 5.96348 18.3251 6.50102C19.0077 7.17294 21.137 5.13901 24.7778 5.64749C28.4187 6.15598 29.7027 8.15359 30.1903 7.91751C30.6779 7.68143 31.4256 4.79397 30.5804 3.88596C29.7352 2.97796 27.8498 4.50341 27.4922 3.88596C27.1346 3.26852 27.1996 0.25394 24.7778 0.0723388C22.356 -0.109262 21.9009 3.54092 21.332 3.54092C20.7631 3.54092 20.6331 0.925864 19.3978 0.944024Z" fill="#F1F1EC" style="mix-blend-mode:color-dodge"/>
</svg>
